<svg xmlns="http://www.w3.org/2000/svg" version="1.1" xmlns:xlink="http://www.w3.org/1999/xlink" xmlns:svgjs="http://svgjs.dev/svgjs" viewBox="0 0 800 800"><g fill="none" stroke-width="3" stroke="hsl(335, 77%, 50%)" stroke-linecap="round"><line x1="576.5" y1="400" x2="223.5" y2="400" transform="rotate(0, 400, 400)" opacity="0.49"></line><line x1="169.5" y1="400" x2="630.5" y2="400" transform="rotate(4, 400, 400)" opacity="0.89"></line><line x1="234" y1="400" x2="566" y2="400" transform="rotate(8, 400, 400)" opacity="0.69"></line><line x1="662" y1="400" x2="138" y2="400" transform="rotate(12, 400, 400)" opacity="0.11"></line><line x1="407.5" y1="400" x2="392.5" y2="400" transform="rotate(16, 400, 400)" opacity="0.32"></line><line x1="397" y1="400" x2="403" y2="400" transform="rotate(20, 400, 400)" opacity="0.47"></line><line x1="510.5" y1="400" x2="289.5" y2="400" transform="rotate(24, 400, 400)" opacity="0.64"></line><line x1="161" y1="400" x2="639" y2="400" transform="rotate(28, 400, 400)" opacity="0.87"></line><line x1="274" y1="400" x2="526" y2="400" transform="rotate(32, 400, 400)" opacity="0.50"></line><line x1="67" y1="400" x2="733" y2="400" transform="rotate(36, 400, 400)" opacity="0.34"></line><line x1="169" y1="400" x2="631" y2="400" transform="rotate(40, 400, 400)" opacity="0.48"></line><line x1="183" y1="400" x2="617" y2="400" transform="rotate(44, 400, 400)" opacity="0.23"></line><line x1="350.5" y1="400" x2="449.5" y2="400" transform="rotate(48, 400, 400)" opacity="0.77"></line><line x1="53" y1="400" x2="747" y2="400" transform="rotate(52, 400, 400)" opacity="0.86"></line><line x1="691.5" y1="400" x2="108.5" y2="400" transform="rotate(56, 400, 400)" opacity="0.13"></line><line x1="301.5" y1="400" x2="498.5" y2="400" transform="rotate(60, 400, 400)" opacity="0.87"></line><line x1="573" y1="400" x2="227" y2="400" transform="rotate(64, 400, 400)" opacity="0.56"></line><line x1="650.5" y1="400" x2="149.5" y2="400" transform="rotate(68, 400, 400)" opacity="0.62"></line><line x1="362" y1="400" x2="438" y2="400" transform="rotate(72, 400, 400)" opacity="0.43"></line><line x1="60.5" y1="400" x2="739.5" y2="400" transform="rotate(76, 400, 400)" opacity="0.09"></line><line x1="55" y1="400" x2="745" y2="400" transform="rotate(80, 400, 400)" opacity="0.62"></line><line x1="389" y1="400" x2="411" y2="400" transform="rotate(84, 400, 400)" opacity="0.96"></line><line x1="181.5" y1="400" x2="618.5" y2="400" transform="rotate(88, 400, 400)" opacity="0.69"></line><line x1="648" y1="400" x2="152" y2="400" transform="rotate(92, 400, 400)" opacity="0.82"></line><line x1="574.5" y1="400" x2="225.5" y2="400" transform="rotate(96, 400, 400)" opacity="0.22"></line><line x1="133.5" y1="400" x2="666.5" y2="400" transform="rotate(100, 400, 400)" opacity="0.92"></line><line x1="384" y1="400" x2="416" y2="400" transform="rotate(104, 400, 400)" opacity="0.81"></line><line x1="269.5" y1="400" x2="530.5" y2="400" transform="rotate(108, 400, 400)" opacity="0.95"></line><line x1="546" y1="400" x2="254" y2="400" transform="rotate(112, 400, 400)" opacity="0.94"></line><line x1="195" y1="400" x2="605" y2="400" transform="rotate(116, 400, 400)" opacity="0.47"></line><line x1="423.5" y1="400" x2="376.5" y2="400" transform="rotate(120, 400, 400)" opacity="0.62"></line><line x1="577.5" y1="400" x2="222.5" y2="400" transform="rotate(124, 400, 400)" opacity="0.68"></line><line x1="426.5" y1="400" x2="373.5" y2="400" transform="rotate(128, 400, 400)" opacity="0.98"></line><line x1="626" y1="400" x2="174" y2="400" transform="rotate(132, 400, 400)" opacity="0.08"></line><line x1="367" y1="400" x2="433" y2="400" transform="rotate(136, 400, 400)" opacity="0.53"></line><line x1="224.5" y1="400" x2="575.5" y2="400" transform="rotate(140, 400, 400)" opacity="0.40"></line><line x1="31.5" y1="400" x2="768.5" y2="400" transform="rotate(144, 400, 400)" opacity="0.20"></line><line x1="414" y1="400" x2="386" y2="400" transform="rotate(148, 400, 400)" opacity="0.15"></line><line x1="202" y1="400" x2="598" y2="400" transform="rotate(152, 400, 400)" opacity="0.18"></line><line x1="418.5" y1="400" x2="381.5" y2="400" transform="rotate(156, 400, 400)" opacity="0.23"></line><line x1="49" y1="400" x2="751" y2="400" transform="rotate(160, 400, 400)" opacity="0.61"></line><line x1="666" y1="400" x2="134" y2="400" transform="rotate(164, 400, 400)" opacity="0.16"></line><line x1="132" y1="400" x2="668" y2="400" transform="rotate(168, 400, 400)" opacity="0.88"></line><line x1="180" y1="400" x2="620" y2="400" transform="rotate(172, 400, 400)" opacity="0.32"></line><line x1="470.5" y1="400" x2="329.5" y2="400" transform="rotate(176, 400, 400)" opacity="0.54"></line><line x1="521.5" y1="400" x2="278.5" y2="400" transform="rotate(180, 400, 400)" opacity="0.55"></line><line x1="637.5" y1="400" x2="162.5" y2="400" transform="rotate(184, 400, 400)" opacity="0.49"></line><line x1="236" y1="400" x2="564" y2="400" transform="rotate(188, 400, 400)" opacity="0.56"></line><line x1="38" y1="400" x2="762" y2="400" transform="rotate(192, 400, 400)" opacity="0.70"></line><line x1="660.5" y1="400" x2="139.5" y2="400" transform="rotate(196, 400, 400)" opacity="0.71"></line><line x1="699.5" y1="400" x2="100.5" y2="400" transform="rotate(200, 400, 400)" opacity="0.33"></line><line x1="94.5" y1="400" x2="705.5" y2="400" transform="rotate(204, 400, 400)" opacity="0.46"></line><line x1="676" y1="400" x2="124" y2="400" transform="rotate(208, 400, 400)" opacity="0.36"></line><line x1="464.5" y1="400" x2="335.5" y2="400" transform="rotate(212, 400, 400)" opacity="0.56"></line><line x1="679.5" y1="400" x2="120.5" y2="400" transform="rotate(216, 400, 400)" opacity="0.80"></line><line x1="449" y1="400" x2="351" y2="400" transform="rotate(220, 400, 400)" opacity="0.76"></line><line x1="188" y1="400" x2="612" y2="400" transform="rotate(224, 400, 400)" opacity="0.42"></line><line x1="424.5" y1="400" x2="375.5" y2="400" transform="rotate(228, 400, 400)" opacity="0.74"></line><line x1="438.5" y1="400" x2="361.5" y2="400" transform="rotate(232, 400, 400)" opacity="0.22"></line><line x1="736.5" y1="400" x2="63.5" y2="400" transform="rotate(236, 400, 400)" opacity="0.81"></line><line x1="172" y1="400" x2="628" y2="400" transform="rotate(240, 400, 400)" opacity="0.99"></line><line x1="297" y1="400" x2="503" y2="400" transform="rotate(244, 400, 400)" opacity="0.53"></line><line x1="639" y1="400" x2="161" y2="400" transform="rotate(248, 400, 400)" opacity="0.67"></line><line x1="191" y1="400" x2="609" y2="400" transform="rotate(252, 400, 400)" opacity="0.91"></line><line x1="235.5" y1="400" x2="564.5" y2="400" transform="rotate(256, 400, 400)" opacity="0.84"></line><line x1="556.5" y1="400" x2="243.5" y2="400" transform="rotate(260, 400, 400)" opacity="0.29"></line><line x1="51" y1="400" x2="749" y2="400" transform="rotate(264, 400, 400)" opacity="0.30"></line><line x1="165" y1="400" x2="635" y2="400" transform="rotate(268, 400, 400)" opacity="0.94"></line><line x1="183" y1="400" x2="617" y2="400" transform="rotate(272, 400, 400)" opacity="0.90"></line><line x1="87" y1="400" x2="713" y2="400" transform="rotate(276, 400, 400)" opacity="0.28"></line><line x1="662.5" y1="400" x2="137.5" y2="400" transform="rotate(280, 400, 400)" opacity="0.96"></line><line x1="182" y1="400" x2="618" y2="400" transform="rotate(284, 400, 400)" opacity="0.80"></line><line x1="412" y1="400" x2="388" y2="400" transform="rotate(288, 400, 400)" opacity="0.59"></line><line x1="188" y1="400" x2="612" y2="400" transform="rotate(292, 400, 400)" opacity="0.08"></line><line x1="346.5" y1="400" x2="453.5" y2="400" transform="rotate(296, 400, 400)" opacity="0.22"></line><line x1="252" y1="400" x2="548" y2="400" transform="rotate(300, 400, 400)" opacity="0.32"></line><line x1="165" y1="400" x2="635" y2="400" transform="rotate(304, 400, 400)" opacity="0.42"></line><line x1="364.5" y1="400" x2="435.5" y2="400" transform="rotate(308, 400, 400)" opacity="0.79"></line><line x1="278" y1="400" x2="522" y2="400" transform="rotate(312, 400, 400)" opacity="0.83"></line><line x1="582.5" y1="400" x2="217.5" y2="400" transform="rotate(316, 400, 400)" opacity="0.12"></line><line x1="594" y1="400" x2="206" y2="400" transform="rotate(320, 400, 400)" opacity="0.53"></line><line x1="547" y1="400" x2="253" y2="400" transform="rotate(324, 400, 400)" opacity="0.35"></line><line x1="446" y1="400" x2="354" y2="400" transform="rotate(328, 400, 400)" opacity="0.21"></line><line x1="540" y1="400" x2="260" y2="400" transform="rotate(332, 400, 400)" opacity="0.96"></line><line x1="375" y1="400" x2="425" y2="400" transform="rotate(336, 400, 400)" opacity="0.23"></line><line x1="683.5" y1="400" x2="116.5" y2="400" transform="rotate(340, 400, 400)" opacity="0.34"></line><line x1="439.5" y1="400" x2="360.5" y2="400" transform="rotate(344, 400, 400)" opacity="0.46"></line><line x1="435.5" y1="400" x2="364.5" y2="400" transform="rotate(348, 400, 400)" opacity="0.20"></line></g></svg>