<svg xmlns="http://www.w3.org/2000/svg" version="1.1" xmlns:xlink="http://www.w3.org/1999/xlink" xmlns:svgjs="http://svgjs.dev/svgjs" viewBox="0 0 800 800"><circle r="15" cx="685" cy="257" fill="hsl(278, 50%, 50%)" opacity="0.62"></circle><circle r="10" cx="760" cy="112" stroke-width="2" stroke="hsl(190, 50%, 50%)" fill="none" opacity="0.48"></circle><circle r="7.5" cx="495" cy="746" fill="hsl(141, 50%, 50%)" opacity="0.88"></circle><circle r="10" cx="78" cy="300" fill="hsl(274, 50%, 50%)" opacity="0.48"></circle><circle r="8" cx="183" cy="215" stroke-width="2" stroke="hsl(273, 50%, 50%)" fill="none" opacity="0.63"></circle><circle r="13" cx="265" cy="409" fill="hsl(228, 50%, 50%)" opacity="0.26"></circle><circle r="14" cx="236" cy="647" fill="hsl(253, 50%, 50%)" opacity="0.30"></circle><circle r="13.5" cx="688" cy="723" stroke-width="2" stroke="hsl(268, 50%, 50%)" fill="none" opacity="0.65"></circle><circle r="15" cx="173" cy="720" stroke-width="2" stroke="hsl(276, 50%, 50%)" fill="none" opacity="0.44"></circle><circle r="12" cx="653" cy="615" fill="hsl(291, 50%, 50%)" opacity="0.70"></circle><circle r="9.5" cx="361" cy="690" fill="hsl(149, 50%, 50%)" opacity="0.55"></circle><circle r="12.5" cx="237" cy="220" stroke-width="2" stroke="hsl(253, 50%, 50%)" fill="none" opacity="0.43"></circle><circle r="9" cx="498" cy="521" stroke-width="2" stroke="hsl(141, 50%, 50%)" fill="none" opacity="0.20"></circle><circle r="8" cx="159" cy="225" fill="hsl(278, 50%, 50%)" opacity="0.12"></circle><circle r="13.5" cx="692" cy="468" stroke-width="2" stroke="hsl(268, 50%, 50%)" fill="none" opacity="1.00"></circle><circle r="10.5" cx="539" cy="193" stroke-width="2" stroke="hsl(207, 50%, 50%)" fill="none" opacity="0.74"></circle><circle r="4.5" cx="479" cy="349" fill="hsl(128, 50%, 50%)" opacity="0.69"></circle><circle r="8" cx="510" cy="560" fill="hsl(155, 50%, 50%)" opacity="0.39"></circle><circle r="8" cx="65" cy="641" fill="hsl(273, 50%, 50%)" opacity="0.34"></circle><circle r="7.5" cx="546" cy="61" stroke-width="2" stroke="hsl(127, 50%, 50%)" fill="none" opacity="0.86"></circle><circle r="11" cx="575" cy="527" stroke-width="2" stroke="hsl(241, 50%, 50%)" fill="none" opacity="0.14"></circle><circle r="14" cx="166" cy="432" fill="hsl(276, 50%, 50%)" opacity="0.62"></circle><circle r="8" cx="300" cy="20" stroke-width="2" stroke="hsl(117, 50%, 50%)" fill="none" opacity="0.56"></circle><circle r="13" cx="663" cy="85" fill="hsl(236, 50%, 50%)" opacity="0.46"></circle><circle r="12.5" cx="130" cy="545" stroke-width="2" stroke="hsl(279, 50%, 50%)" fill="none" opacity="0.19"></circle><circle r="12" cx="167" cy="478" stroke-width="2" stroke="hsl(276, 50%, 50%)" fill="none" opacity="0.15"></circle><circle r="13" cx="26" cy="354" stroke-width="2" stroke="hsl(268, 50%, 50%)" fill="none" opacity="0.64"></circle><circle r="11" cx="764" cy="182" fill="hsl(175, 50%, 50%)" opacity="0.67"></circle><circle r="11.5" cx="719" cy="766" fill="hsl(242, 50%, 50%)" opacity="0.61"></circle><circle r="12" cx="75" cy="261" stroke-width="2" stroke="hsl(274, 50%, 50%)" fill="none" opacity="0.42"></circle><circle r="16.5" cx="619" cy="773" stroke-width="2" stroke="hsl(287, 50%, 50%)" fill="none" opacity="0.92"></circle><circle r="7" cx="440" cy="665" fill="hsl(108, 50%, 50%)" opacity="0.82"></circle><circle r="18.5" cx="607" cy="265" stroke-width="2" stroke="hsl(280, 50%, 50%)" fill="none" opacity="0.75"></circle><circle r="8" cx="514" cy="234" stroke-width="2" stroke="hsl(172, 50%, 50%)" fill="none" opacity="0.36"></circle><circle r="8.5" cx="514" cy="309" fill="hsl(172, 50%, 50%)" opacity="0.51"></circle><circle r="13" cx="120" cy="82" stroke-width="2" stroke="hsl(248, 50%, 50%)" fill="none" opacity="0.72"></circle><circle r="8" cx="780" cy="278" fill="hsl(157, 50%, 50%)" opacity="0.42"></circle><circle r="7" cx="785" cy="456" fill="hsl(157, 50%, 50%)" opacity="0.27"></circle><circle r="9.5" cx="51" cy="309" stroke-width="2" stroke="hsl(271, 50%, 50%)" fill="none" opacity="0.63"></circle><circle r="10" cx="136" cy="183" stroke-width="2" stroke="hsl(279, 50%, 50%)" fill="none" opacity="0.39"></circle><circle r="9" cx="342" cy="607" stroke-width="2" stroke="hsl(160, 50%, 50%)" fill="none" opacity="0.15"></circle><circle r="12" cx="403" cy="606" stroke-width="2" stroke="hsl(113, 50%, 50%)" fill="none" opacity="0.68"></circle><circle r="9.5" cx="608" cy="428" stroke-width="2" stroke="hsl(280, 50%, 50%)" fill="none" opacity="0.27"></circle><circle r="12" cx="234" cy="532" stroke-width="2" stroke="hsl(253, 50%, 50%)" fill="none" opacity="0.94"></circle><circle r="8.5" cx="318" cy="744" stroke-width="2" stroke="hsl(184, 50%, 50%)" fill="none" opacity="0.61"></circle><circle r="8.5" cx="782" cy="143" stroke-width="2" stroke="hsl(160, 50%, 50%)" fill="none" opacity="0.43"></circle><circle r="11.5" cx="59" cy="152" fill="hsl(288, 50%, 50%)" opacity="0.80"></circle><circle r="11" cx="156" cy="66" stroke-width="2" stroke="hsl(226, 50%, 50%)" fill="none" opacity="0.24"></circle><circle r="11" cx="693" cy="39" stroke-width="2" stroke="hsl(213, 50%, 50%)" fill="none" opacity="0.84"></circle><circle r="13.5" cx="704" cy="212" stroke-width="2" stroke="hsl(256, 50%, 50%)" fill="none" opacity="0.45"></circle><circle r="15.5" cx="176" cy="580" fill="hsl(273, 50%, 50%)" opacity="0.92"></circle><circle r="5" cx="478" cy="421" stroke-width="2" stroke="hsl(128, 50%, 50%)" fill="none" opacity="0.65"></circle><circle r="9.5" cx="352" cy="25" stroke-width="2" stroke="hsl(88, 50%, 50%)" fill="none" opacity="0.32"></circle><circle r="9" cx="310" cy="486" fill="hsl(196, 50%, 50%)" opacity="0.20"></circle><circle r="16" cx="212" cy="774" stroke-width="2" stroke="hsl(265, 50%, 50%)" fill="none" opacity="0.99"></circle><circle r="13" cx="573" cy="476" stroke-width="2" stroke="hsl(241, 50%, 50%)" fill="none" opacity="0.51"></circle><circle r="9.5" cx="743" cy="398" stroke-width="2" stroke="hsl(210, 50%, 50%)" fill="none" opacity="0.96"></circle><circle r="8" cx="142" cy="124" fill="hsl(260, 50%, 50%)" opacity="0.81"></circle><circle r="16" cx="191" cy="390" stroke-width="2" stroke="hsl(270, 50%, 50%)" fill="none" opacity="0.15"></circle><circle r="11.5" cx="191" cy="159" stroke-width="2" stroke="hsl(257, 50%, 50%)" fill="none" opacity="0.83"></circle><circle r="8" cx="12" cy="635" fill="hsl(265, 50%, 50%)" opacity="0.59"></circle><circle r="8" cx="606" cy="17" fill="hsl(160, 50%, 50%)" opacity="0.80"></circle><circle r="12" cx="545" cy="350" stroke-width="2" stroke="hsl(207, 50%, 50%)" fill="none" opacity="0.62"></circle><circle r="12" cx="719" cy="352" stroke-width="2" stroke="hsl(242, 50%, 50%)" fill="none" opacity="0.75"></circle><circle r="11.5" cx="18" cy="117" fill="hsl(292, 50%, 50%)" opacity="0.64"></circle><circle r="9.5" cx="331" cy="165" stroke-width="2" stroke="hsl(166, 50%, 50%)" fill="none" opacity="0.32"></circle><circle r="13.5" cx="565" cy="777" fill="hsl(241, 50%, 50%)" opacity="0.77"></circle><circle r="9.5" cx="133" cy="231" fill="hsl(279, 50%, 50%)" opacity="0.34"></circle><circle r="13" cx="649" cy="491" fill="hsl(293, 50%, 50%)" opacity="0.27"></circle><circle r="11" cx="722" cy="640" stroke-width="2" stroke="hsl(242, 50%, 50%)" fill="none" opacity="0.55"></circle><circle r="11.5" cx="652" cy="706" stroke-width="2" stroke="hsl(291, 50%, 50%)" fill="none" opacity="0.14"></circle><circle r="7.5" cx="469" cy="646" stroke-width="2" stroke="hsl(119, 50%, 50%)" fill="none" opacity="0.46"></circle><circle r="6.5" cx="381" cy="60" stroke-width="2" stroke="hsl(81, 50%, 50%)" fill="none" opacity="0.13"></circle><circle r="8" cx="570" cy="30" stroke-width="2" stroke="hsl(134, 50%, 50%)" fill="none" opacity="0.81"></circle><circle r="6" cx="440" cy="410" fill="hsl(108, 50%, 50%)" opacity="0.98"></circle><circle r="10" cx="207" cy="196" stroke-width="2" stroke="hsl(265, 50%, 50%)" fill="none" opacity="0.75"></circle><circle r="11" cx="16" cy="311" fill="hsl(266, 50%, 50%)" opacity="0.68"></circle><circle r="16" cx="661" cy="147" fill="hsl(277, 50%, 50%)" opacity="0.87"></circle><circle r="6.5" cx="365" cy="158" fill="hsl(132, 50%, 50%)" opacity="0.52"></circle><circle r="17" cx="654" cy="208" fill="hsl(291, 50%, 50%)" opacity="0.50"></circle><circle r="10.5" cx="232" cy="158" fill="hsl(238, 50%, 50%)" opacity="0.57"></circle><circle r="13" cx="110" cy="645" stroke-width="2" stroke="hsl(277, 50%, 50%)" fill="none" opacity="0.25"></circle><circle r="11.5" cx="736" cy="727" stroke-width="2" stroke="hsl(226, 50%, 50%)" fill="none" opacity="1.00"></circle><circle r="12" cx="84" cy="61" stroke-width="2" stroke="hsl(237, 50%, 50%)" fill="none" opacity="0.49"></circle><circle r="16.5" cx="612" cy="183" stroke-width="2" stroke="hsl(279, 50%, 50%)" fill="none" opacity="0.84"></circle><circle r="13.5" cx="144" cy="779" stroke-width="2" stroke="hsl(279, 50%, 50%)" fill="none" opacity="0.46"></circle><circle r="10.5" cx="680" cy="674" fill="hsl(278, 50%, 50%)" opacity="0.71"></circle><circle r="9.5" cx="586" cy="384" stroke-width="2" stroke="hsl(257, 50%, 50%)" fill="none" opacity="0.13"></circle><circle r="4" cx="120" cy="8" stroke-width="2" stroke="hsl(180, 50%, 50%)" fill="none" opacity="0.38"></circle><circle r="10" cx="364" cy="569" stroke-width="2" stroke="hsl(138, 50%, 50%)" fill="none" opacity="0.32"></circle><circle r="11.5" cx="443" cy="529" stroke-width="2" stroke="hsl(108, 50%, 50%)" fill="none" opacity="0.80"></circle><circle r="16" cx="124" cy="484" fill="hsl(278, 50%, 50%)" opacity="0.26"></circle><circle r="6.5" cx="424" cy="120" stroke-width="2" stroke="hsl(96, 50%, 50%)" fill="none" opacity="0.29"></circle><circle r="10" cx="118" cy="390" fill="hsl(278, 50%, 50%)" opacity="0.72"></circle><circle r="7" cx="385" cy="781" stroke-width="2" stroke="hsl(129, 50%, 50%)" fill="none" opacity="0.22"></circle><circle r="17" cx="214" cy="693" fill="hsl(260, 50%, 50%)" opacity="0.91"></circle><circle r="9.5" cx="771" cy="314" stroke-width="2" stroke="hsl(175, 50%, 50%)" fill="none" opacity="0.81"></circle><circle r="9.5" cx="324" cy="551" fill="hsl(184, 50%, 50%)" opacity="0.12"></circle><circle r="5" cx="155" cy="10" stroke-width="2" stroke="hsl(177, 50%, 50%)" fill="none" opacity="0.61"></circle><circle r="7" cx="785" cy="553" fill="hsl(157, 50%, 50%)" opacity="0.61"></circle><circle r="11.5" cx="48" cy="667" stroke-width="2" stroke="hsl(269, 50%, 50%)" fill="none" opacity="0.19"></circle><circle r="11" cx="664" cy="539" fill="hsl(286, 50%, 50%)" opacity="0.81"></circle><circle r="6.5" cx="449" cy="155" stroke-width="2" stroke="hsl(108, 50%, 50%)" fill="none" opacity="0.27"></circle><circle r="12.5" cx="589" cy="124" fill="hsl(235, 50%, 50%)" opacity="0.16"></circle><circle r="17" cx="749" cy="514" fill="hsl(210, 50%, 50%)" opacity="0.15"></circle><circle r="10" cx="272" cy="469" stroke-width="2" stroke="hsl(228, 50%, 50%)" fill="none" opacity="0.60"></circle><circle r="13.5" cx="657" cy="287" stroke-width="2" stroke="hsl(291, 50%, 50%)" fill="none" opacity="0.30"></circle><circle r="9.5" cx="32" cy="559" stroke-width="2" stroke="hsl(268, 50%, 50%)" fill="none" opacity="0.76"></circle><circle r="10" cx="193" cy="44" fill="hsl(193, 50%, 50%)" opacity="0.90"></circle><circle r="11" cx="264" cy="189" stroke-width="2" stroke="hsl(228, 50%, 50%)" fill="none" opacity="0.99"></circle><circle r="12.5" cx="573" cy="682" fill="hsl(241, 50%, 50%)" opacity="0.95"></circle><circle r="9.5" cx="555" cy="391" stroke-width="2" stroke="hsl(225, 50%, 50%)" fill="none" opacity="0.75"></circle><circle r="11" cx="38" cy="440" fill="hsl(269, 50%, 50%)" opacity="0.59"></circle><circle r="8" cx="11" cy="779" stroke-width="2" stroke="hsl(265, 50%, 50%)" fill="none" opacity="0.37"></circle><circle r="10" cx="519" cy="402" stroke-width="2" stroke="hsl(172, 50%, 50%)" fill="none" opacity="0.81"></circle><circle r="12.5" cx="45" cy="724" fill="hsl(269, 50%, 50%)" opacity="0.66"></circle><circle r="7" cx="400" cy="23" fill="hsl(67, 50%, 50%)" opacity="0.43"></circle><circle r="8" cx="506" cy="267" fill="hsl(155, 50%, 50%)" opacity="0.42"></circle><circle r="13.5" cx="363" cy="429" stroke-width="2" stroke="hsl(138, 50%, 50%)" fill="none" opacity="0.98"></circle><circle r="9" cx="753" cy="222" stroke-width="2" stroke="hsl(193, 50%, 50%)" fill="none" opacity="0.79"></circle><circle r="7.5" cx="326" cy="712" fill="hsl(172, 50%, 50%)" opacity="0.44"></circle><circle r="7" cx="466" cy="127" fill="hsl(111, 50%, 50%)" opacity="0.34"></circle><circle r="11" cx="189" cy="512" stroke-width="2" stroke="hsl(270, 50%, 50%)" fill="none" opacity="0.42"></circle><circle r="8" cx="492" cy="449" fill="hsl(141, 50%, 50%)" opacity="0.76"></circle><circle r="7" cx="785" cy="349" fill="hsl(157, 50%, 50%)" opacity="0.78"></circle><circle r="9.5" cx="291" cy="580" fill="hsl(207, 50%, 50%)" opacity="0.72"></circle><circle r="14" cx="735" cy="35" stroke-width="2" stroke="hsl(207, 50%, 50%)" fill="none" opacity="0.23"></circle><circle r="11" cx="530" cy="499" fill="hsl(189, 50%, 50%)" opacity="0.45"></circle><circle r="6" cx="390" cy="175" fill="hsl(119, 50%, 50%)" opacity="0.17"></circle><circle r="10.5" cx="300" cy="442" fill="hsl(196, 50%, 50%)" opacity="0.33"></circle><circle r="9" cx="527" cy="593" stroke-width="2" stroke="hsl(189, 50%, 50%)" fill="none" opacity="0.55"></circle><circle r="14.5" cx="552" cy="292" stroke-width="2" stroke="hsl(225, 50%, 50%)" fill="none" opacity="0.21"></circle><circle r="14" cx="573" cy="626" fill="hsl(241, 50%, 50%)" opacity="0.39"></circle><circle r="14.5" cx="724" cy="298" fill="hsl(242, 50%, 50%)" opacity="0.74"></circle><circle r="9" cx="123" cy="709" stroke-width="2" stroke="hsl(278, 50%, 50%)" fill="none" opacity="0.38"></circle><circle r="4.5" cx="363" cy="88" fill="hsl(104, 50%, 50%)" opacity="0.69"></circle><circle r="11.5" cx="15" cy="686" fill="hsl(266, 50%, 50%)" opacity="0.54"></circle><circle r="12" cx="36" cy="45" stroke-width="2" stroke="hsl(230, 50%, 50%)" fill="none" opacity="0.73"></circle><circle r="6" cx="365" cy="113" stroke-width="2" stroke="hsl(117, 50%, 50%)" fill="none" opacity="0.41"></circle><circle r="6.5" cx="507" cy="156" fill="hsl(153, 50%, 50%)" opacity="0.92"></circle><circle r="5.5" cx="401" cy="101" stroke-width="2" stroke="hsl(93, 50%, 50%)" fill="none" opacity="0.94"></circle><circle r="9.5" cx="345" cy="487" fill="hsl(160, 50%, 50%)" opacity="0.92"></circle><circle r="9" cx="404" cy="369" fill="hsl(113, 50%, 50%)" opacity="0.75"></circle><circle r="7" cx="247" cy="96" fill="hsl(196, 50%, 50%)" opacity="0.51"></circle><circle r="7" cx="511" cy="785" fill="hsl(155, 50%, 50%)" opacity="0.58"></circle><circle r="11" cx="246" cy="744" fill="hsl(246, 50%, 50%)" opacity="0.54"></circle><circle r="11.5" cx="64" cy="369" fill="hsl(273, 50%, 50%)" opacity="0.85"></circle><circle r="8.5" cx="773" cy="695" fill="hsl(175, 50%, 50%)" opacity="0.76"></circle><circle r="4.5" cx="523" cy="131" stroke-width="2" stroke="hsl(157, 50%, 50%)" fill="none" opacity="0.12"></circle><circle r="10.5" cx="621" cy="535" fill="hsl(287, 50%, 50%)" opacity="0.57"></circle><circle r="12" cx="118" cy="264" fill="hsl(278, 50%, 50%)" opacity="0.57"></circle><circle r="15.5" cx="80" cy="515" stroke-width="2" stroke="hsl(274, 50%, 50%)" fill="none" opacity="0.42"></circle><circle r="6.5" cx="11" cy="486" stroke-width="2" stroke="hsl(265, 50%, 50%)" fill="none" opacity="0.44"></circle><circle r="10.5" cx="107" cy="120" fill="hsl(273, 50%, 50%)" opacity="0.94"></circle><circle r="14.5" cx="630" cy="331" stroke-width="2" stroke="hsl(292, 50%, 50%)" fill="none" opacity="0.80"></circle><circle r="8.5" cx="414" cy="465" stroke-width="2" stroke="hsl(109, 50%, 50%)" fill="none" opacity="0.22"></circle><circle r="15" cx="38" cy="211" fill="hsl(269, 50%, 50%)" opacity="0.38"></circle><circle r="11" cx="454" cy="270" stroke-width="2" stroke="hsl(112, 50%, 50%)" fill="none" opacity="0.41"></circle><circle r="7" cx="785" cy="770" fill="hsl(157, 50%, 50%)" opacity="0.99"></circle><circle r="15.5" cx="693" cy="584" fill="hsl(268, 50%, 50%)" opacity="0.50"></circle><circle r="12.5" cx="661" cy="754" stroke-width="2" stroke="hsl(291, 50%, 50%)" fill="none" opacity="0.12"></circle><circle r="10.5" cx="362" cy="209" stroke-width="2" stroke="hsl(149, 50%, 50%)" fill="none" opacity="0.37"></circle><circle r="7" cx="294" cy="199" fill="hsl(207, 50%, 50%)" opacity="0.14"></circle><circle r="11" cx="742" cy="569" stroke-width="2" stroke="hsl(210, 50%, 50%)" fill="none" opacity="0.96"></circle><circle r="12" cx="201" cy="459" stroke-width="2" stroke="hsl(265, 50%, 50%)" fill="none" opacity="0.61"></circle><circle r="13.5" cx="693" cy="515" stroke-width="2" stroke="hsl(268, 50%, 50%)" fill="none" opacity="0.65"></circle><circle r="8" cx="36" cy="625" fill="hsl(268, 50%, 50%)" opacity="0.47"></circle><circle r="4" cx="410" cy="148" fill="hsl(108, 50%, 50%)" opacity="0.54"></circle><circle r="11" cx="166" cy="188" stroke-width="2" stroke="hsl(276, 50%, 50%)" fill="none" opacity="0.89"></circle><circle r="6" cx="10" cy="448" fill="hsl(265, 50%, 50%)" opacity="0.53"></circle><circle r="8.5" cx="20" cy="745" stroke-width="2" stroke="hsl(266, 50%, 50%)" fill="none" opacity="0.94"></circle><circle r="12.5" cx="604" cy="73" fill="hsl(199, 50%, 50%)" opacity="0.97"></circle><circle r="8.5" cx="781" cy="644" fill="hsl(157, 50%, 50%)" opacity="0.13"></circle><circle r="11.5" cx="92" cy="187" stroke-width="2" stroke="hsl(280, 50%, 50%)" fill="none" opacity="0.24"></circle><circle r="11.5" cx="648" cy="31" fill="hsl(193, 50%, 50%)" opacity="0.18"></circle><circle r="7" cx="757" cy="446" stroke-width="2" stroke="hsl(193, 50%, 50%)" fill="none" opacity="0.59"></circle><circle r="6" cx="174" cy="22" stroke-width="2" stroke="hsl(184, 50%, 50%)" fill="none" opacity="0.11"></circle><circle r="15" cx="678" cy="331" fill="hsl(278, 50%, 50%)" opacity="0.57"></circle><circle r="13.5" cx="719" cy="435" fill="hsl(242, 50%, 50%)" opacity="0.42"></circle><circle r="9.5" cx="346" cy="776" fill="hsl(160, 50%, 50%)" opacity="0.83"></circle><circle r="12" cx="631" cy="117" stroke-width="2" stroke="hsl(259, 50%, 50%)" fill="none" opacity="0.45"></circle><circle r="11.5" cx="232" cy="487" fill="hsl(253, 50%, 50%)" opacity="0.23"></circle><circle r="7.5" cx="477" cy="310" fill="hsl(128, 50%, 50%)" opacity="0.16"></circle><circle r="7.5" cx="467" cy="769" fill="hsl(119, 50%, 50%)" opacity="0.57"></circle><circle r="15.5" cx="154" cy="350" stroke-width="2" stroke="hsl(278, 50%, 50%)" fill="none" opacity="0.15"></circle><circle r="11" cx="267" cy="713" stroke-width="2" stroke="hsl(228, 50%, 50%)" fill="none" opacity="0.99"></circle><circle r="5" cx="456" cy="345" fill="hsl(112, 50%, 50%)" opacity="0.73"></circle><circle r="9.5" cx="290" cy="351" fill="hsl(207, 50%, 50%)" opacity="0.84"></circle><circle r="10.5" cx="421" cy="217" fill="hsl(109, 50%, 50%)" opacity="0.15"></circle><circle r="8" cx="547" cy="127" fill="hsl(189, 50%, 50%)" opacity="0.29"></circle><circle r="9" cx="83" cy="597" fill="hsl(274, 50%, 50%)" opacity="0.63"></circle><circle r="10.5" cx="734" cy="255" stroke-width="2" stroke="hsl(226, 50%, 50%)" fill="none" opacity="0.26"></circle><circle r="6" cx="298" cy="621" stroke-width="2" stroke="hsl(207, 50%, 50%)" fill="none" opacity="1.00"></circle><circle r="9.5" cx="450" cy="723" stroke-width="2" stroke="hsl(108, 50%, 50%)" fill="none" opacity="0.10"></circle><circle r="8.5" cx="328" cy="354" fill="hsl(172, 50%, 50%)" opacity="0.85"></circle><circle r="11" cx="95" cy="420" stroke-width="2" stroke="hsl(276, 50%, 50%)" fill="none" opacity="0.91"></circle><circle r="3.5" cx="776" cy="793" fill="hsl(157, 50%, 50%)" opacity="0.11"></circle><circle r="6" cx="284" cy="93" fill="hsl(168, 50%, 50%)" opacity="0.36"></circle><circle r="14" cx="237" cy="272" fill="hsl(253, 50%, 50%)" opacity="1.00"></circle><circle r="5.5" cx="486" cy="227" fill="hsl(128, 50%, 50%)" opacity="0.56"></circle><circle r="12" cx="715" cy="683" stroke-width="2" stroke="hsl(242, 50%, 50%)" fill="none" opacity="0.39"></circle><circle r="9.5" cx="158" cy="525" fill="hsl(278, 50%, 50%)" opacity="0.93"></circle><circle r="13" cx="43" cy="487" stroke-width="2" stroke="hsl(269, 50%, 50%)" fill="none" opacity="0.48"></circle><circle r="7" cx="502" cy="645" fill="hsl(155, 50%, 50%)" opacity="0.13"></circle><circle r="9.5" cx="606" cy="653" fill="hsl(280, 50%, 50%)" opacity="0.77"></circle><circle r="11" cx="398" cy="292" fill="hsl(120, 50%, 50%)" opacity="0.91"></circle><circle r="15.5" cx="710" cy="115" fill="hsl(240, 50%, 50%)" opacity="0.15"></circle><circle r="12.5" cx="162" cy="301" fill="hsl(278, 50%, 50%)" opacity="0.49"></circle><circle r="12.5" cx="286" cy="778" stroke-width="2" stroke="hsl(218, 50%, 50%)" fill="none" opacity="0.42"></circle><circle r="8" cx="505" cy="354" stroke-width="2" stroke="hsl(155, 50%, 50%)" fill="none" opacity="0.53"></circle><circle r="9" cx="236" cy="65" stroke-width="2" stroke="hsl(189, 50%, 50%)" fill="none" opacity="0.40"></circle><circle r="11.5" cx="531" cy="456" fill="hsl(189, 50%, 50%)" opacity="0.56"></circle><circle r="10" cx="274" cy="668" stroke-width="2" stroke="hsl(228, 50%, 50%)" fill="none" opacity="0.71"></circle><circle r="10.5" cx="133" cy="741" stroke-width="2" stroke="hsl(279, 50%, 50%)" fill="none" opacity="0.72"></circle><circle r="9" cx="99" cy="364" stroke-width="2" stroke="hsl(276, 50%, 50%)" fill="none" opacity="0.98"></circle><circle r="7" cx="550" cy="94" fill="hsl(173, 50%, 50%)" opacity="0.26"></circle><circle r="12.5" cx="200" cy="91" fill="hsl(219, 50%, 50%)" opacity="0.84"></circle><circle r="12.5" cx="633" cy="667" stroke-width="2" stroke="hsl(292, 50%, 50%)" fill="none" opacity="0.26"></circle><circle r="11.5" cx="80" cy="557" stroke-width="2" stroke="hsl(274, 50%, 50%)" fill="none" opacity="0.45"></circle><circle r="12" cx="91" cy="224" fill="hsl(276, 50%, 50%)" opacity="0.31"></circle><circle r="10" cx="41" cy="784" stroke-width="2" stroke="hsl(269, 50%, 50%)" fill="none" opacity="0.83"></circle><circle r="8.5" cx="611" cy="507" stroke-width="2" stroke="hsl(280, 50%, 50%)" fill="none" opacity="0.78"></circle><circle r="10" cx="203" cy="548" fill="hsl(265, 50%, 50%)" opacity="0.49"></circle><circle r="12.5" cx="199" cy="249" fill="hsl(270, 50%, 50%)" opacity="0.40"></circle><circle r="8" cx="298" cy="527" fill="hsl(207, 50%, 50%)" opacity="0.98"></circle><circle r="8" cx="463" cy="204" fill="hsl(119, 50%, 50%)" opacity="0.51"></circle><circle r="12.5" cx="590" cy="338" fill="hsl(270, 50%, 50%)" opacity="0.73"></circle><circle r="9.5" cx="88" cy="143" fill="hsl(283, 50%, 50%)" opacity="0.10"></circle><circle r="11" cx="564" cy="163" fill="hsl(239, 50%, 50%)" opacity="0.20"></circle><circle r="8" cx="431" cy="324" stroke-width="2" stroke="hsl(107, 50%, 50%)" fill="none" opacity="0.17"></circle><circle r="9" cx="307" cy="680" stroke-width="2" stroke="hsl(196, 50%, 50%)" fill="none" opacity="0.38"></circle><circle r="8" cx="754" cy="668" stroke-width="2" stroke="hsl(193, 50%, 50%)" fill="none" opacity="0.27"></circle><circle r="19" cx="212" cy="325" fill="hsl(265, 50%, 50%)" opacity="0.44"></circle><circle r="7.5" cx="496" cy="184" fill="hsl(142, 50%, 50%)" opacity="0.28"></circle><circle r="12" cx="80" cy="777" fill="hsl(274, 50%, 50%)" opacity="0.99"></circle><circle r="13.5" cx="238" cy="376" fill="hsl(246, 50%, 50%)" opacity="0.34"></circle><circle r="6" cx="422" cy="172" stroke-width="2" stroke="hsl(110, 50%, 50%)" fill="none" opacity="0.94"></circle><circle r="4.5" cx="501" cy="103" fill="hsl(128, 50%, 50%)" opacity="0.22"></circle><circle r="12" cx="461" cy="586" stroke-width="2" stroke="hsl(112, 50%, 50%)" fill="none" opacity="0.55"></circle><circle r="10.5" cx="128" cy="678" fill="hsl(279, 50%, 50%)" opacity="0.47"></circle><circle r="7" cx="317" cy="635" stroke-width="2" stroke="hsl(184, 50%, 50%)" fill="none" opacity="0.79"></circle><circle r="5.5" cx="494" cy="127" fill="hsl(130, 50%, 50%)" opacity="0.16"></circle><circle r="9" cx="133" cy="426" stroke-width="2" stroke="hsl(279, 50%, 50%)" fill="none" opacity="0.27"></circle><circle r="16" cx="123" cy="592" fill="hsl(278, 50%, 50%)" opacity="0.88"></circle><circle r="6.5" cx="315" cy="83" fill="hsl(132, 50%, 50%)" opacity="0.93"></circle><circle r="9.5" cx="365" cy="355" stroke-width="2" stroke="hsl(138, 50%, 50%)" fill="none" opacity="0.92"></circle><circle r="10" cx="682" cy="785" fill="hsl(278, 50%, 50%)" opacity="0.22"></circle><circle r="12.5" cx="35" cy="264" stroke-width="2" stroke="hsl(268, 50%, 50%)" fill="none" opacity="0.57"></circle><circle r="9" cx="471" cy="78" stroke-width="2" stroke="hsl(85, 50%, 50%)" fill="none" opacity="0.68"></circle><circle r="12.5" cx="327" cy="285" fill="hsl(172, 50%, 50%)" opacity="0.97"></circle><circle r="6" cx="436" cy="785" fill="hsl(107, 50%, 50%)" opacity="0.74"></circle><circle r="6" cx="416" cy="763" fill="hsl(109, 50%, 50%)" opacity="0.34"></circle><circle r="8" cx="782" cy="733" fill="hsl(157, 50%, 50%)" opacity="0.71"></circle><circle r="8.5" cx="120" cy="154" fill="hsl(279, 50%, 50%)" opacity="0.48"></circle><circle r="13" cx="617" cy="718" stroke-width="2" stroke="hsl(287, 50%, 50%)" fill="none" opacity="0.74"></circle><circle r="9" cx="50" cy="584" fill="hsl(271, 50%, 50%)" opacity="0.28"></circle><circle r="15" cx="656" cy="431" fill="hsl(291, 50%, 50%)" opacity="0.54"></circle><circle r="7" cx="275" cy="119" stroke-width="2" stroke="hsl(193, 50%, 50%)" fill="none" opacity="0.56"></circle><circle r="10" cx="370" cy="255" fill="hsl(138, 50%, 50%)" opacity="0.22"></circle><circle r="13.5" cx="25" cy="401" stroke-width="2" stroke="hsl(266, 50%, 50%)" fill="none" opacity="0.41"></circle><circle r="8.5" cx="729" cy="603" stroke-width="2" stroke="hsl(226, 50%, 50%)" fill="none" opacity="0.89"></circle><circle r="7.5" cx="386" cy="484" stroke-width="2" stroke="hsl(129, 50%, 50%)" fill="none" opacity="0.76"></circle><circle r="7.5" cx="10" cy="249" stroke-width="2" stroke="hsl(265, 50%, 50%)" fill="none" opacity="0.60"></circle><circle r="9" cx="82" cy="17" stroke-width="2" stroke="hsl(195, 50%, 50%)" fill="none" opacity="0.56"></circle><circle r="6" cx="420" cy="427" stroke-width="2" stroke="hsl(109, 50%, 50%)" fill="none" opacity="0.31"></circle><circle r="11" cx="511" cy="696" stroke-width="2" stroke="hsl(155, 50%, 50%)" fill="none" opacity="0.35"></circle><circle r="9" cx="382" cy="736" stroke-width="2" stroke="hsl(129, 50%, 50%)" fill="none" opacity="0.25"></circle><circle r="11.5" cx="568" cy="428" fill="hsl(241, 50%, 50%)" opacity="0.22"></circle><circle r="11" cx="19" cy="531" stroke-width="2" stroke="hsl(266, 50%, 50%)" fill="none" opacity="0.72"></circle><circle r="14" cx="20" cy="169" fill="hsl(285, 50%, 50%)" opacity="0.11"></circle><circle r="6" cx="386" cy="134" stroke-width="2" stroke="hsl(115, 50%, 50%)" fill="none" opacity="0.21"></circle><circle r="13" cx="285" cy="244" stroke-width="2" stroke="hsl(218, 50%, 50%)" fill="none" opacity="0.78"></circle><circle r="15.5" cx="49" cy="92" fill="hsl(277, 50%, 50%)" opacity="0.93"></circle><circle r="12" cx="114" cy="305" fill="hsl(278, 50%, 50%)" opacity="0.84"></circle><circle r="8" cx="232" cy="125" fill="hsl(226, 50%, 50%)" opacity="0.23"></circle><circle r="11" cx="17" cy="594" fill="hsl(266, 50%, 50%)" opacity="0.20"></circle><circle r="8" cx="753" cy="355" stroke-width="2" stroke="hsl(193, 50%, 50%)" fill="none" opacity="0.70"></circle><circle r="7" cx="21" cy="17" fill="hsl(198, 50%, 50%)" opacity="0.92"></circle><circle r="10.5" cx="235" cy="22" stroke-width="2" stroke="hsl(162, 50%, 50%)" fill="none" opacity="0.74"></circle><circle r="6.5" cx="419" cy="74" fill="hsl(74, 50%, 50%)" opacity="0.11"></circle><circle r="16.5" cx="677" cy="385" stroke-width="2" stroke="hsl(278, 50%, 50%)" fill="none" opacity="0.17"></circle><circle r="8.5" cx="108" cy="338" fill="hsl(277, 50%, 50%)" opacity="0.26"></circle><circle r="8" cx="322" cy="211" fill="hsl(184, 50%, 50%)" opacity="0.35"></circle><circle r="6.5" cx="474" cy="391" stroke-width="2" stroke="hsl(119, 50%, 50%)" fill="none" opacity="0.57"></circle><circle r="13" cx="711" cy="167" stroke-width="2" stroke="hsl(253, 50%, 50%)" fill="none" opacity="0.16"></circle><circle r="9" cx="268" cy="515" fill="hsl(228, 50%, 50%)" opacity="0.26"></circle><circle r="5" cx="518" cy="89" stroke-width="2" stroke="hsl(131, 50%, 50%)" fill="none" opacity="0.69"></circle><circle r="13.5" cx="219" cy="602" fill="hsl(260, 50%, 50%)" opacity="0.15"></circle><circle r="5.5" cx="438" cy="36" stroke-width="2" stroke="hsl(63, 50%, 50%)" fill="none" opacity="0.81"></circle><circle r="13.5" cx="573" cy="727" stroke-width="2" stroke="hsl(241, 50%, 50%)" fill="none" opacity="0.82"></circle><circle r="9" cx="271" cy="622" fill="hsl(228, 50%, 50%)" opacity="0.82"></circle><circle r="9" cx="328" cy="125" stroke-width="2" stroke="hsl(150, 50%, 50%)" fill="none" opacity="0.16"></circle><circle r="9" cx="514" cy="26" fill="hsl(92, 50%, 50%)" opacity="0.63"></circle><circle r="8" cx="783" cy="604" fill="hsl(157, 50%, 50%)" opacity="0.73"></circle><circle r="9.5" cx="771" cy="75" fill="hsl(180, 50%, 50%)" opacity="0.95"></circle><circle r="7.5" cx="270" cy="330" stroke-width="2" stroke="hsl(228, 50%, 50%)" fill="none" opacity="0.51"></circle><circle r="15" cx="623" cy="388" fill="hsl(287, 50%, 50%)" opacity="0.70"></circle><circle r="12" cx="569" cy="566" stroke-width="2" stroke="hsl(241, 50%, 50%)" fill="none" opacity="0.65"></circle><circle r="6.5" cx="340" cy="66" fill="hsl(108, 50%, 50%)" opacity="0.28"></circle><circle r="10.5" cx="254" cy="579" stroke-width="2" stroke="hsl(237, 50%, 50%)" fill="none" opacity="0.36"></circle><circle r="14" cx="608" cy="597" fill="hsl(280, 50%, 50%)" opacity="0.87"></circle><circle r="10" cx="780" cy="26" stroke-width="2" stroke="hsl(193, 50%, 50%)" fill="none" opacity="0.73"></circle><circle r="13" cx="78" cy="450" fill="hsl(274, 50%, 50%)" opacity="0.80"></circle><circle r="13.5" cx="639" cy="570" stroke-width="2" stroke="hsl(293, 50%, 50%)" fill="none" opacity="0.17"></circle><circle r="11" cx="285" cy="151" fill="hsl(203, 50%, 50%)" opacity="0.69"></circle><circle r="9" cx="670" cy="643" fill="hsl(286, 50%, 50%)" opacity="0.35"></circle><circle r="9" cx="280" cy="55" fill="hsl(147, 50%, 50%)" opacity="0.49"></circle><circle r="14" cx="78" cy="697" stroke-width="2" stroke="hsl(274, 50%, 50%)" fill="none" opacity="0.69"></circle><circle r="7" cx="411" cy="706" stroke-width="2" stroke="hsl(113, 50%, 50%)" fill="none" opacity="0.48"></circle><circle r="10" cx="272" cy="298" fill="hsl(228, 50%, 50%)" opacity="0.90"></circle><circle r="10" cx="531" cy="738" stroke-width="2" stroke="hsl(189, 50%, 50%)" fill="none" opacity="0.28"></circle><circle r="9" cx="397" cy="666" fill="hsl(120, 50%, 50%)" opacity="0.35"></circle><circle r="7.5" cx="616" cy="454" fill="hsl(287, 50%, 50%)" opacity="0.21"></circle><circle r="12" cx="173" cy="121" stroke-width="2" stroke="hsl(251, 50%, 50%)" fill="none" opacity="0.19"></circle><circle r="10.5" cx="316" cy="401" fill="hsl(184, 50%, 50%)" opacity="0.68"></circle><circle r="9" cx="459" cy="475" fill="hsl(112, 50%, 50%)" opacity="0.59"></circle><circle r="7" cx="467" cy="21" stroke-width="2" stroke="hsl(66, 50%, 50%)" fill="none" opacity="0.13"></circle><circle r="7.5" cx="752" cy="618" stroke-width="2" stroke="hsl(193, 50%, 50%)" fill="none" opacity="0.31"></circle><circle r="9.5" cx="123" cy="34" stroke-width="2" stroke="hsl(205, 50%, 50%)" fill="none" opacity="0.76"></circle><circle r="10" cx="166" cy="266" fill="hsl(276, 50%, 50%)" opacity="0.71"></circle><circle r="8.5" cx="615" cy="478" fill="hsl(287, 50%, 50%)" opacity="0.74"></circle><circle r="7" cx="442" cy="377" stroke-width="2" stroke="hsl(108, 50%, 50%)" fill="none" opacity="0.78"></circle><circle r="9.5" cx="534" cy="636" stroke-width="2" stroke="hsl(189, 50%, 50%)" fill="none" opacity="0.42"></circle><circle r="8.5" cx="780" cy="387" fill="hsl(157, 50%, 50%)" opacity="0.17"></circle><circle r="11" cx="93" cy="743" stroke-width="2" stroke="hsl(276, 50%, 50%)" fill="none" opacity="0.12"></circle><circle r="6" cx="71" cy="618" stroke-width="2" stroke="hsl(273, 50%, 50%)" fill="none" opacity="0.71"></circle><circle r="8.5" cx="349" cy="650" stroke-width="2" stroke="hsl(160, 50%, 50%)" fill="none" opacity="0.31"></circle><circle r="9" cx="750" cy="777" stroke-width="2" stroke="hsl(210, 50%, 50%)" fill="none" opacity="0.37"></circle><circle r="7.5" cx="784" cy="236" fill="hsl(157, 50%, 50%)" opacity="0.77"></circle><circle r="20.5" cx="171" cy="640" stroke-width="2" stroke="hsl(276, 50%, 50%)" fill="none" opacity="0.26"></circle><circle r="9.5" cx="386" cy="530" stroke-width="2" stroke="hsl(129, 50%, 50%)" fill="none" opacity="0.29"></circle><circle r="15" cx="564" cy="231" stroke-width="2" stroke="hsl(241, 50%, 50%)" fill="none" opacity="0.86"></circle><circle r="11.5" cx="235" cy="441" stroke-width="2" stroke="hsl(253, 50%, 50%)" fill="none" opacity="0.32"></circle></svg>